<?xml version="1.0" standalone="no"?>
<!DOCTYPE svg PUBLIC "-//W3C//DTD SVG 20010904//EN"
 "http://www.w3.org/TR/2001/REC-SVG-20010904/DTD/svg10.dtd">
<svg version="1.0" xmlns="http://www.w3.org/2000/svg"
 width="512.000000pt" height="512.000000pt" viewBox="0 0 512.000000 512.000000"
 preserveAspectRatio="xMidYMid meet">
<metadata>
Created by potrace 1.14, written by Peter Selinger 2001-2017
</metadata>
<g transform="translate(0.000000,512.000000) scale(0.100000,-0.100000)"
fill="#000000" stroke="none">
<path d="M2516 5105 c-26 -7 -58 -23 -71 -36 -13 -13 -56 -80 -96 -149 -40
-69 -94 -163 -122 -210 -70 -120 -73 -203 -9 -263 51 -48 79 -52 332 -51 129
0 251 4 270 7 62 12 120 79 125 144 4 52 -8 78 -143 310 -118 203 -143 233
-208 252 -18 5 -48 4 -78 -4z"/>
<path d="M1720 4547 c-14 -5 -39 -16 -57 -23 -17 -8 -33 -14 -36 -14 -25 0
-318 -182 -369 -230 -24 -22 -45 -79 -42 -115 6 -84 56 -134 142 -142 55 -5
60 -4 122 39 91 62 192 121 301 176 99 49 126 78 134 141 5 41 -11 97 -37 126
-35 40 -112 61 -158 42z"/>
<path d="M3284 4532 c-71 -45 -97 -125 -65 -198 22 -49 27 -52 141 -110 52
-26 119 -62 148 -81 29 -18 56 -33 61 -33 5 0 11 -3 13 -7 2 -5 29 -26 61 -47
47 -33 66 -39 106 -39 134 0 206 154 119 254 -35 39 -210 151 -336 215 -132
67 -196 79 -248 46z"/>
<path d="M950 3912 c-63 -8 -91 -25 -133 -80 -114 -151 -247 -400 -247 -464 0
-115 113 -191 217 -146 42 19 61 44 110 143 51 105 48 100 136 233 87 133 94
190 33 260 -28 31 -85 58 -116 54z"/>
<path d="M4128 3900 c-45 -13 -85 -48 -101 -88 -26 -66 -17 -100 63 -222 40
-61 97 -160 126 -220 53 -106 97 -159 132 -161 9 0 25 -2 35 -4 30 -6 91 16
119 43 33 30 51 79 46 124 -3 35 -99 241 -126 272 -10 10 -16 20 -14 22 3 6
-102 164 -129 193 -35 37 -100 55 -151 41z"/>
<path d="M501 2933 c-62 -31 -89 -92 -93 -210 -2 -32 -6 -49 -13 -45 -5 3 -4
-2 4 -11 7 -9 9 -17 4 -17 -13 0 -11 -43 2 -52 7 -5 6 -8 0 -8 -6 0 -11 -16
-11 -35 0 -19 5 -35 11 -35 5 0 3 -5 -5 -10 -11 -7 -11 -10 -2 -10 9 0 10 -5
3 -19 -6 -10 -7 -21 -4 -25 4 -4 8 -23 9 -44 8 -158 51 -222 151 -227 102 -6
170 66 164 174 -3 67 -5 322 -2 406 3 84 1 91 -28 124 -52 57 -129 75 -190 44z"/>
<path d="M4468 2918 c-56 -32 -79 -88 -72 -179 9 -118 10 -231 3 -276 -3 -27
-2 -40 4 -36 6 4 7 1 2 -7 -14 -22 -14 -124 0 -150 53 -101 181 -119 257 -37
26 29 32 43 43 117 3 19 8 43 11 54 5 14 3 16 -7 10 -11 -6 -12 -5 -2 7 16 20
15 309 -1 309 -6 0 -4 5 4 10 8 5 11 10 5 10 -5 0 -11 16 -12 35 -3 49 -30
102 -67 128 -42 30 -120 32 -168 5z"/>
<path d="M675 1909 c-63 -19 -105 -79 -105 -149 0 -52 91 -240 184 -379 79
-119 95 -137 132 -152 34 -14 103 -18 110 -7 3 5 10 6 15 3 5 -4 9 -1 9 4 0 6
5 11 11 11 16 0 49 38 64 74 24 56 10 102 -69 220 -40 61 -97 160 -126 219
-36 73 -63 116 -85 133 -36 27 -93 36 -140 23z"/>
<path d="M4322 1899 c-37 -19 -48 -34 -111 -154 -59 -115 -133 -239 -151 -255
-19 -17 -44 -70 -47 -102 -6 -51 28 -121 73 -148 41 -26 109 -28 153 -6 52 28
156 181 252 376 50 101 57 121 54 164 -7 113 -120 176 -223 125z"/>
<path d="M1300 1090 c-82 -42 -111 -148 -61 -222 31 -44 196 -153 349 -231
106 -53 131 -62 176 -62 43 1 61 6 90 29 50 38 63 75 57 163 -2 41 -51 82
-163 138 -61 31 -160 88 -220 126 -121 80 -165 91 -228 59z"/>
<path d="M3700 1102 c-8 -3 -55 -33 -105 -66 -49 -34 -101 -67 -115 -75 -56
-30 -180 -91 -187 -91 -28 0 -102 -107 -94 -135 2 -5 4 -14 5 -20 13 -59 22
-78 51 -104 41 -36 93 -48 145 -32 92 27 370 188 456 263 39 35 55 95 41 160
-5 25 -48 73 -82 91 -30 15 -86 19 -115 9z"/>
<path d="M2275 720 c-39 -15 -84 -68 -90 -107 -10 -55 -10 -56 -1 -83 21 -65
62 -96 151 -116 57 -12 395 -13 395 0 0 6 5 4 10 -4 5 -8 10 -10 10 -4 0 6 15
11 33 12 126 5 198 143 127 242 -35 49 -75 65 -162 65 -43 0 -78 -2 -78 -5 0
-5 -169 -4 -295 3 -44 2 -89 1 -100 -3z"/>
</g>
</svg>
